<svg version="1.1" xmlns="http://www.w3.org/2000/svg" viewBox="0 0 241.62536184546562 258.8489100496033" width="241.62536184546562" height="258.8489100496033">
  <!-- svg-source:excalidraw -->
  
  <defs>
    <style class="style-fonts">
      @font-face {
        font-family: "Virgil";
        src: url("https://excalidraw.com/Virgil.woff2");
      }
      @font-face {
        font-family: "Cascadia";
        src: url("https://excalidraw.com/Cascadia.woff2");
      }
      @font-face {
        font-family: "Assistant";
        src: url("https://excalidraw.com/Assistant-Regular.woff2");
      }
    </style>
    
  </defs>
  <g stroke-linecap="round" transform="translate(62.13123084778081 10) rotate(0 64.28571428571433 62.85714285714289)"><path d="M128.57 62.86 C128.57 65.38, 128.41 67.93, 128.1 70.43 C127.79 72.94, 127.32 75.45, 126.7 77.9 C126.09 80.35, 125.31 82.79, 124.39 85.15 C123.48 87.51, 122.41 89.83, 121.21 92.07 C120.01 94.3, 118.66 96.49, 117.19 98.56 C115.72 100.64, 114.12 102.65, 112.4 104.54 C110.69 106.43, 108.85 108.23, 106.92 109.91 C104.98 111.58, 102.93 113.15, 100.8 114.59 C98.68 116.02, 96.45 117.34, 94.16 118.51 C91.87 119.69, 89.5 120.73, 87.08 121.63 C84.67 122.53, 82.18 123.28, 79.67 123.89 C77.16 124.49, 74.6 124.95, 72.03 125.26 C69.47 125.56, 66.87 125.71, 64.29 125.71 C61.7 125.71, 59.1 125.56, 56.54 125.26 C53.97 124.95, 51.41 124.49, 48.9 123.89 C46.39 123.28, 43.9 122.53, 41.49 121.63 C39.07 120.73, 36.7 119.69, 34.41 118.51 C32.12 117.34, 29.89 116.02, 27.77 114.59 C25.64 113.15, 23.59 111.58, 21.66 109.91 C19.72 108.23, 17.88 106.43, 16.17 104.54 C14.45 102.65, 12.85 100.64, 11.38 98.56 C9.91 96.49, 8.56 94.3, 7.36 92.07 C6.16 89.83, 5.09 87.51, 4.18 85.15 C3.26 82.79, 2.49 80.35, 1.87 77.9 C1.25 75.45, 0.78 72.94, 0.47 70.43 C0.16 67.93, 0 65.38, 0 62.86 C0 60.33, 0.16 57.79, 0.47 55.28 C0.78 52.77, 1.25 50.27, 1.87 47.81 C2.49 45.36, 3.26 42.93, 4.18 40.57 C5.09 38.21, 6.16 35.88, 7.36 33.65 C8.56 31.41, 9.91 29.23, 11.38 27.15 C12.85 25.07, 14.45 23.07, 16.17 21.18 C17.88 19.28, 19.72 17.48, 21.66 15.81 C23.59 14.13, 25.64 12.56, 27.77 11.13 C29.89 9.69, 32.12 8.37, 34.41 7.2 C36.7 6.03, 39.07 4.98, 41.49 4.08 C43.9 3.19, 46.39 2.43, 48.9 1.83 C51.41 1.22, 53.97 0.76, 56.54 0.46 C59.1 0.15, 61.7 0, 64.29 0 C66.87 0, 69.47 0.15, 72.03 0.46 C74.6 0.76, 77.16 1.22, 79.67 1.83 C82.18 2.43, 84.67 3.19, 87.08 4.08 C89.5 4.98, 91.87 6.03, 94.16 7.2 C96.45 8.37, 98.68 9.69, 100.8 11.13 C102.93 12.56, 104.98 14.13, 106.92 15.81 C108.85 17.48, 110.69 19.28, 112.4 21.18 C114.12 23.07, 115.72 25.07, 117.19 27.15 C118.66 29.23, 120.01 31.41, 121.21 33.65 C122.41 35.88, 123.48 38.21, 124.39 40.57 C125.31 42.93, 126.09 45.36, 126.7 47.81 C127.32 50.27, 127.79 52.77, 128.1 55.28 C128.41 57.79, 128.57 60.33, 128.57 62.86" stroke="none" stroke-width="0" fill="#b2f2bb"></path><path d="M128.57 62.86 C128.57 65.38, 128.41 67.93, 128.1 70.43 C127.79 72.94, 127.32 75.45, 126.7 77.9 C126.09 80.35, 125.31 82.79, 124.39 85.15 C123.48 87.51, 122.41 89.83, 121.21 92.07 C120.01 94.3, 118.66 96.49, 117.19 98.56 C115.72 100.64, 114.12 102.65, 112.4 104.54 C110.69 106.43, 108.85 108.23, 106.92 109.91 C104.98 111.58, 102.93 113.15, 100.8 114.59 C98.68 116.02, 96.45 117.34, 94.16 118.51 C91.87 119.69, 89.5 120.73, 87.08 121.63 C84.67 122.53, 82.18 123.28, 79.67 123.89 C77.16 124.49, 74.6 124.95, 72.03 125.26 C69.47 125.56, 66.87 125.71, 64.29 125.71 C61.7 125.71, 59.1 125.56, 56.54 125.26 C53.97 124.95, 51.41 124.49, 48.9 123.89 C46.39 123.28, 43.9 122.53, 41.49 121.63 C39.07 120.73, 36.7 119.69, 34.41 118.51 C32.12 117.34, 29.89 116.02, 27.77 114.59 C25.64 113.15, 23.59 111.58, 21.66 109.91 C19.72 108.23, 17.88 106.43, 16.17 104.54 C14.45 102.65, 12.85 100.64, 11.38 98.56 C9.91 96.49, 8.56 94.3, 7.36 92.07 C6.16 89.83, 5.09 87.51, 4.18 85.15 C3.26 82.79, 2.49 80.35, 1.87 77.9 C1.25 75.45, 0.78 72.94, 0.47 70.43 C0.16 67.93, 0 65.38, 0 62.86 C0 60.33, 0.16 57.79, 0.47 55.28 C0.78 52.77, 1.25 50.27, 1.87 47.81 C2.49 45.36, 3.26 42.93, 4.18 40.57 C5.09 38.21, 6.16 35.88, 7.36 33.65 C8.56 31.41, 9.91 29.23, 11.38 27.15 C12.85 25.07, 14.45 23.07, 16.17 21.18 C17.88 19.28, 19.72 17.48, 21.66 15.81 C23.59 14.13, 25.64 12.56, 27.77 11.13 C29.89 9.69, 32.12 8.37, 34.41 7.2 C36.7 6.03, 39.07 4.98, 41.49 4.08 C43.9 3.19, 46.39 2.43, 48.9 1.83 C51.41 1.22, 53.97 0.76, 56.54 0.46 C59.1 0.15, 61.7 0, 64.29 0 C66.87 0, 69.47 0.15, 72.03 0.46 C74.6 0.76, 77.16 1.22, 79.67 1.83 C82.18 2.43, 84.67 3.19, 87.08 4.08 C89.5 4.98, 91.87 6.03, 94.16 7.2 C96.45 8.37, 98.68 9.69, 100.8 11.13 C102.93 12.56, 104.98 14.13, 106.92 15.81 C108.85 17.48, 110.69 19.28, 112.4 21.18 C114.12 23.07, 115.72 25.07, 117.19 27.15 C118.66 29.23, 120.01 31.41, 121.21 33.65 C122.41 35.88, 123.48 38.21, 124.39 40.57 C125.31 42.93, 126.09 45.36, 126.7 47.81 C127.32 50.27, 127.79 52.77, 128.1 55.28 C128.41 57.79, 128.57 60.33, 128.57 62.86" stroke="#1e1e1e" stroke-width="2" fill="none"></path></g><g stroke-linecap="round"><g transform="translate(17.845516562066592 238.57142857142867) rotate(0 99.99999999999989 -57.142857142857)" fill-rule="evenodd"><path d="M0 0 C-0.71 -11.67, -14.05 -50.48, -4.29 -70 C5.48 -89.52, 35.71 -108.81, 58.57 -117.14 C81.43 -125.48, 109.52 -125.95, 132.86 -120 C156.19 -114.05, 186.67 -101.9, 198.57 -81.43 C210.48 -60.95, 222.86 -11.67, 204.29 2.86 C185.71 17.38, 121.19 6.19, 87.14 5.71 C53.1 5.24, 14.52 0.95, 0 0" stroke="none" stroke-width="0" fill="#b2f2bb" fill-rule="evenodd"></path><path d="M0 0 C-0.71 -11.67, -14.05 -50.48, -4.29 -70 C5.48 -89.52, 35.71 -108.81, 58.57 -117.14 C81.43 -125.48, 109.52 -125.95, 132.86 -120 C156.19 -114.05, 186.67 -101.9, 198.57 -81.43 C210.48 -60.95, 222.86 -11.67, 204.29 2.86 C185.71 17.38, 121.19 6.19, 87.14 5.71 C53.1 5.24, 14.52 0.95, 0 0 M0 0 C-0.71 -11.67, -14.05 -50.48, -4.29 -70 C5.48 -89.52, 35.71 -108.81, 58.57 -117.14 C81.43 -125.48, 109.52 -125.95, 132.86 -120 C156.19 -114.05, 186.67 -101.9, 198.57 -81.43 C210.48 -60.95, 222.86 -11.67, 204.29 2.86 C185.71 17.38, 121.19 6.19, 87.14 5.71 C53.1 5.24, 14.52 0.95, 0 0" stroke="#1e1e1e" stroke-width="2" fill="none"></path></g></g><mask></mask></svg>